<svg xmlns="http://www.w3.org/2000/svg" width="51" height="50" viewBox="0 0 51 50">
    <g fill="none" fill-rule="evenodd">
        <g>
            <g>
                <g>
                    <g>
                        <g>
                            <path stroke="#00BFBF" d="M43.6.5c1.675 0 3.19.676 4.287 1.77 1.096 1.092 1.774 2.602 1.774 4.27h0v36.92c0 1.668-.678 3.178-1.774 4.27-1.097 1.094-2.612 1.77-4.286 1.77h0H6.56c-1.674 0-3.19-.676-4.286-1.77C1.178 46.639.5 45.129.5 43.46h0V6.54c0-1.668.678-3.178 1.775-4.27C3.37 1.175 4.887.5 6.56.5H43.6z" transform="translate(-760 -5201) translate(0 4983) translate(310 169) translate(255 48) translate(195.629 1)"/>
                            <g>
                                <path fill="#FFF" fill-opacity="0" d="M0 0H50.161V50H0z" transform="translate(-760 -5201) translate(0 4983) translate(310 169) translate(255 48) translate(195.629 1)"/>
                                <path fill="#00BFBF" d="M33.14 50V34.701h5.676c.272 0 .502-.196.54-.458l.83-5.891c.045-.318-.21-.602-.54-.602H33.14v-5.462c0-.917.764-1.661 1.707-1.661h4.605c.322 0 .583-.254.583-.567v-5.493c0-.313-.261-.567-.583-.567h-4.938c-4.704 0-8.518 3.71-8.518 8.288v5.462h-4.323c-.3 0-.545.237-.545.53v5.891c0 .293.244.53.545.53h4.323V50h7.144z" transform="translate(-760 -5201) translate(0 4983) translate(310 169) translate(255 48) translate(195.629 1)"/>
                            </g>
                        </g>
                    </g>
                </g>
            </g>
        </g>
    </g>
</svg>
