<svg xmlns="http://www.w3.org/2000/svg" width="51" height="50" viewBox="0 0 51 50">
    <g fill="none" fill-rule="evenodd">
        <g>
            <g>
                <g>
                    <g>
                        <g>
                            <path fill="#FFF" stroke="#00BFBF" d="M34.53 49.5h-18.9C7.29 49.5.503 42.735.503 34.42V15.58C.502 7.265 7.289.5 15.63.5h18.9C42.873.5 49.66 7.265 49.66 15.58v18.84c0 8.315-6.787 15.08-15.13 15.08" transform="translate(-695 -5201) translate(0 4983) translate(310 169) translate(255 48) translate(130.42 1)"/>
                            <g>
                                <path fill="#FFF" fill-opacity="0" d="M0 0H50.161V50H0z" transform="translate(-695 -5201) translate(0 4983) translate(310 169) translate(255 48) translate(130.42 1)"/>
                                <g fill="#00BFBF" stroke="#00BFBF">
                                    <path d="M11.537 5.892c-4.209 0-7.632 3.413-7.632 7.608s3.423 7.608 7.632 7.608 7.632-3.413 7.632-7.608-3.423-7.608-7.632-7.608m0 19.108C5.175 25 0 19.841 0 13.5S5.175 2 11.537 2c6.362 0 11.537 5.159 11.537 11.5S17.9 25 11.537 25M25.08 2c0 1.105-.898 2-2.006 2-1.108 0-2.006-.895-2.006-2s.898-2 2.006-2c1.108 0 2.007.895 2.007 2" transform="translate(-695 -5201) translate(0 4983) translate(310 169) translate(255 48) translate(130.42 1) translate(13.042 13)"/>
                                </g>
                            </g>
                        </g>
                    </g>
                </g>
            </g>
        </g>
    </g>
</svg>
