<svg xmlns="http://www.w3.org/2000/svg" width="51" height="50" viewBox="0 0 51 50">
    <g fill="none" fill-rule="evenodd">
        <g>
            <g>
                <g>
                    <g>
                        <g>
                            <path stroke="#00BFBF" d="M45.107.5c1.258 0 2.397.508 3.221 1.33.824.82 1.333 1.955 1.333 3.208h0v39.923c0 1.253-.51 2.388-1.333 3.209-.824.822-1.963 1.33-3.221 1.33h0H5.055c-1.258 0-2.397-.508-3.221-1.33C1.01 47.349.5 46.214.5 44.96h0V5.039c0-1.253.51-2.387 1.333-3.208C2.658 1.008 3.797.5 5.055.5h0z" transform="translate(-630 -5201) translate(0 4983) translate(310 169) translate(255 48) translate(65.21 1)"/>
                            <g>
                                <path fill="#FFF" fill-opacity="0" d="M0 0H50.161V50H0z" transform="translate(-630 -5201) translate(0 4983) translate(310 169) translate(255 48) translate(65.21 1)"/>
                                <g fill="#00BFBF">
                                    <path d="M30.097 16.673v11.312c0 .56-.474 1.015-1.064 1.015h-4.307c-.587 0-1.064-.456-1.064-1.015v-9.596s0-4.051-3.503-4.051-3.692 4.05-3.692 4.05v9.597c0 .56-.477 1.015-1.064 1.015h-4.307c-.59 0-1.064-.456-1.064-1.015V10.33c0-.56.474-1.015 1.064-1.015h4.307c.587 0 1.064.456 1.064 1.015v1.416C17.662 10.272 19.608 9 22.761 9c.917 0 1.721.113 2.423.315 4.785 1.364 4.913 6.729 4.913 7.307v.051zM4.015 8C1.797 8 0 6.212 0 4.002S1.797 0 4.015 0c2.214 0 4.01 1.791 4.01 4.002C8.026 6.212 6.23 8 4.016 8zM7.023 27.969c0 .568-.444 1.031-.996 1.031H1.998c-.548 0-.995-.463-.995-1.031V10.03c0-.568.447-1.031.995-1.031h4.029c.552 0 .996.463.996 1.03V27.97z" transform="translate(-630 -5201) translate(0 4983) translate(310 169) translate(255 48) translate(65.21 1) translate(10.152 10.662)"/>
                                </g>
                            </g>
                        </g>
                    </g>
                </g>
            </g>
        </g>
    </g>
</svg>
