<svg xmlns="http://www.w3.org/2000/svg" width="51" height="50" viewBox="0 0 51 50">
    <g fill="none" fill-rule="evenodd">
        <g>
            <g>
                <g>
                    <g>
                        <g>
                            <path stroke="#00BFBF" d="M45.107.5c1.258 0 2.397.508 3.221 1.33.824.82 1.333 1.955 1.333 3.208h0v39.923c0 1.253-.51 2.388-1.333 3.209-.824.822-1.963 1.33-3.221 1.33h0H5.055c-1.258 0-2.397-.508-3.221-1.33C1.01 47.349.5 46.214.5 44.96h0V5.039c0-1.253.51-2.387 1.333-3.208C2.658 1.008 3.797.5 5.055.5h0z" transform="translate(-565 -5201) translate(0 4983) translate(310 169) translate(255 48) translate(0 1)"/>
                            <g>
                                <g fill="#00BFBF" fill-rule="nonzero">
                                    <path d="M12.039 9.713L.015 0h24.047L12.04 9.713zm0 2.574L0 2.562V18h24.077V2.562L12.04 12.287z" transform="translate(-565 -5201) translate(0 4983) translate(310 169) translate(255 48) translate(0 1) translate(13.042 17)"/>
                                </g>
                                <path fill="#FFF" fill-opacity="0" d="M0 0H50.161V50H0z" transform="translate(-565 -5201) translate(0 4983) translate(310 169) translate(255 48) translate(0 1)"/>
                            </g>
                        </g>
                    </g>
                </g>
            </g>
        </g>
    </g>
</svg>
